<svg xmlns="http://www.w3.org/2000/svg" xmlns:xlink="http://www.w3.org/1999/xlink" viewBox="0 0 103.9 103.12"><defs><style>.cls-1{fill:none;}.cls-2{clip-path:url(#clip-path);}.cls-3{fill:#fff;}.cls-4{font-size:10px;}.cls-10,.cls-4,.cls-5,.cls-6,.cls-7,.cls-8,.cls-9{fill:#a2ce62;}.cls-4,.cls-5,.cls-6,.cls-7,.cls-8,.cls-9{font-family:Dosis-Regular, Dosis Regular;}.cls-5{font-size:10px;}.cls-6{font-size:10px;}.cls-7{font-size:10px;}.cls-8{font-size:10px;}.cls-9{font-size:10px;}</style><clipPath id="clip-path" transform="translate(0 0)"><rect class="cls-1" width="103.9" height="103.13"/></clipPath></defs><title>Asset 10</title><g id="Layer_2" data-name="Layer 2"><g id="Layer_1-2" data-name="Layer 1"><g class="cls-2"><path class="cls-3" d="M103.9,51.56A51.19,51.19,0,0,0,88.69,15.11a52.23,52.23,0,0,0-73.49,0,51.29,51.29,0,0,0,0,72.9,52.23,52.23,0,0,0,73.49,0A51.2,51.2,0,0,0,103.9,51.56" transform="translate(0 0)"/></g><text class="cls-4" transform="matrix(0.36, -0.93, 0.93, 0.36, 12.18, 40.15)">H</text><text class="cls-5" transform="matrix(0.49, -0.87, 0.87, 0.49, 14.75, 33.7)">Y</text><text class="cls-6" transform="translate(17.73 28.33) rotate(-51.23)">P</text><text class="cls-7" transform="matrix(0.73, -0.68, 0.68, 0.73, 21.79, 23.37)">O</text><text class="cls-6" transform="matrix(0.84, -0.55, 0.55, 0.84, 26.44, 19)">A</text><text class="cls-8" transform="translate(32.08 15.43) rotate(-24.6)">L</text><text class="cls-7" transform="translate(37.4 12.98) rotate(-15.93)">L</text><text class="cls-4" transform="translate(42.98 11.26) rotate(-7.23)">E</text><g class="cls-2"><text class="cls-9" transform="matrix(1, 0.02, -0.02, 1, 49.09, 10.38)">R</text></g><text class="cls-7" transform="matrix(0.99, 0.17, -0.17, 0.99, 55.68, 10.63)">G</text><text class="cls-5" transform="translate(62.15 11.77) rotate(19.6)">E</text><text class="cls-5" transform="matrix(0.87, 0.49, -0.49, 0.87, 68.03, 13.77)">N</text><text class="cls-6" transform="matrix(0.81, 0.59, -0.59, 0.81, 74.18, 17.24)">I</text><text class="cls-6" transform="translate(76.92 19.1) rotate(42.9)">C</text><g class="cls-2"><path class="cls-3" d="M52,88.46A36.9,36.9,0,1,0,15,51.56,36.9,36.9,0,0,0,52,88.46" transform="translate(0 0)"/><path class="cls-10" d="M90.15,51.56A37.64,37.64,0,0,0,79,24.76a38.4,38.4,0,0,0-54,0,37.71,37.71,0,0,0,0,53.6,38.4,38.4,0,0,0,54,0,37.64,37.64,0,0,0,11.18-26.8" transform="translate(0 0)"/><path class="cls-3" d="M41.31,71A70.43,70.43,0,0,0,36,59.11C34.2,56,32.84,54,32.84,54s1.73,1.69,4.08,4.48a73.82,73.82,0,0,1,7.81,11,39.52,39.52,0,0,1,3.1,6.81l0,.15a17.42,17.42,0,0,0,3.37-7.68c1.33-6.63-1.12-11.68-8.93-14.82-8.84-3.55-14.4-6.38-15.71-7.6.46,1.18,1.22,4.73.84,12.85C27.13,67,29.17,73.68,34,76.54c2.73,2,6.53,2.43,9,2.54,0-.51-.08-1.05-.15-1.6A36.54,36.54,0,0,0,41.31,71" transform="translate(0 0)"/><path class="cls-3" d="M73.71,20.61c-1.91,2.23-14.4,6.57-27.84,16A18.16,18.16,0,0,0,38,48.7c2.18,1.06,10.17,3,14.06,9,2.48-4.82,4.91-12.16,7.19-15.59,3.3-4.94,5.77-8,5.77-8S63.18,37.6,60.94,43a113.28,113.28,0,0,0-6.45,20.18A57.26,57.26,0,0,0,53.17,74c0,.9,0,1.77,0,2.61,4-.63,10-2.11,14.06-5.77,7.33-5.51,9.4-16.76,7.46-29.28-2.11-13-1.55-18.92-1-20.91" transform="translate(0 0)"/></g><text class="cls-4" transform="matrix(-0.36, 0.93, -0.93, -0.36, 91.05, 62.47)">H</text><text class="cls-5" transform="matrix(-0.49, 0.87, -0.87, -0.49, 88.48, 68.92)">Y</text><text class="cls-6" transform="translate(85.5 74.28) rotate(128.77)">P</text><text class="cls-7" transform="matrix(-0.73, 0.68, -0.68, -0.73, 81.44, 79.24)">O</text><text class="cls-6" transform="matrix(-0.84, 0.55, -0.55, -0.84, 76.79, 83.61)">A</text><text class="cls-8" transform="translate(71.15 87.19) rotate(155.4)">L</text><text class="cls-7" transform="translate(65.83 89.64) rotate(164.07)">L</text><g class="cls-2"><text class="cls-4" transform="translate(60.26 91.36) rotate(172.77)">E</text><text class="cls-9" transform="matrix(-1, -0.02, 0.02, -1, 54.15, 92.24)">R</text><text class="cls-7" transform="matrix(-0.99, -0.17, 0.17, -0.99, 47.56, 91.99)">G</text></g><text class="cls-5" transform="translate(41.09 90.85) rotate(-160.4)">E</text><text class="cls-5" transform="matrix(-0.87, -0.49, 0.49, -0.87, 35.22, 88.86)">N</text><text class="cls-6" transform="matrix(-0.81, -0.59, 0.59, -0.81, 29.07, 85.38)">I</text><text class="cls-6" transform="translate(26.33 83.52) rotate(-137.1)">C</text></g></g></svg>