<svg xmlns="http://www.w3.org/2000/svg" viewBox="0 0 375.53 112.21"><defs><style>.cls-1{fill:#27aae1;}.cls-2{fill:#fff;}.cls-3{fill:#8dc63f;}.cls-4{fill:#00b9f2;}</style></defs><title>Asset 1</title><g id="Layer_2" data-name="Layer 2"><g id="Layer_1-2" data-name="Layer 1"><path class="cls-1" d="M374,45c0,20.72-17.87,37.51-39.91,37.51S294.22,65.69,294.22,45,312.09,7.46,334.13,7.46,374,24.25,374,45"/><g id="White_Ink_Stroke" data-name="White Ink Stroke"><path class="cls-2" d="M334.13,84c-22.83,0-41.4-17.5-41.4-39S311.3,6,334.13,6s41.4,17.5,41.4,39S357,84,334.13,84Zm0-75c-21.18,0-38.42,16.16-38.42,36s17.23,36,38.42,36,38.42-16.16,38.42-36S355.31,9,334.13,9Z"/></g><path id="Green_Stroke" data-name="Green Stroke" class="cls-3" d="M357.7,25.33a8.1,8.1,0,0,0,1.26-.18c.44-.08.88-.14,1.33-.21.89-.12,1.77-.23,2.65-.41a27.52,27.52,0,0,0,8.46-2.92,2.71,2.71,0,0,1-.62.15l-.62.16-1.24.33c-1.81.49-3.61,1-5.44,1.41a30.58,30.58,0,0,1-5.63.79,11.51,11.51,0,0,0,0-3.51,17.26,17.26,0,0,0-1.63-4.67,4.79,4.79,0,0,1-.36-2.47c.34-3.58.79-7.15,1.2-10.73l-.31-.12-6.79,7.15c-5.13-2.57-10.49-2.69-16-1.81L328.23,0l-.43.16-1.41,10.39c0,.11-.42.45-.51.55l-.46.52c-.28.32-.55.65-.81,1A14.4,14.4,0,0,0,322,19.88c-1.7-.94-3.57-1.91-5.26-2.86l-2.57-1.46-1.28-.73a5.74,5.74,0,0,1-1.18-.67q.63.64,1.31,1.22a34.69,34.69,0,0,0,8.88,5.14l.13,0a.15.15,0,0,1,.09.15,7,7,0,0,0,.13,1.37c-1.8-.59-3.84-1.32-5.63-1.94l-2.73-.94-1.33-.46a6.12,6.12,0,0,1-1.27-.44q.49.33,1,.63a39.28,39.28,0,0,0,10,3.81.21.21,0,0,1,.11.05.19.19,0,0,1,0,.09,3.3,3.3,0,0,0,.39,1.1,22.36,22.36,0,0,0-3.41.37,11.6,11.6,0,0,0-1.6.49q-.38.14-.74.32a3.13,3.13,0,0,1-.67.34l5.08-.67c.33,0,.66-.09,1-.15a1.14,1.14,0,0,1,.54,0c.28.09.33.48.44.7s.3.55.47.82A13.12,13.12,0,0,0,325,27.73a17,17,0,0,0,3.36,3c1.26.88,2.63,1.62,3.93,2.45a1.67,1.67,0,0,1-.49.2l-.5.2-1,.41q-.93.42-1.83.9A27.68,27.68,0,0,0,322,39.66a30,30,0,0,0-2.6,3,35.23,35.23,0,0,0-2.24,3.28q-.53.86-1,1.75l-.48.9-.23.46c0,.09-.24.36-.22.44-.45-2.06-.75-3.93-1.28-5.75-2.43-8.34-12.93-12.35-21.28-8.43a10,10,0,0,0-4,15.31,7.65,7.65,0,0,0,10.37,1.93c2-1.44,2.41-3.71.85-5.44a10.61,10.61,0,0,0-.64,1.12,4.49,4.49,0,0,1-3.94,2.92,5,5,0,0,1-4.66-2.24,6.91,6.91,0,0,1-.83-6.73c1.16-3.23,3.71-5,7.29-5.38,5-.51,9.56.45,12.71,4.56a13.22,13.22,0,0,1,2.55,9.81,30.14,30.14,0,0,1-1.6,6.25,22.16,22.16,0,0,0-1,11.65c1,5.36,4.11,9,9.85,10.3A121.88,121.88,0,0,0,333.86,81c7,0,4-.09,14.43-1a25.37,25.37,0,0,0,5.14-1,2.46,2.46,0,0,0,1.7-2.8,2.49,2.49,0,0,0-2.38-2.11c-.61-.08-1.22-.22-1.89-.34,4-7.37,2.35-11.09-5.51-12.43-4.4-8.8-7.12-17.73-2.14-27.33,0,0,1.91-.05,2.09-.06a21.41,21.41,0,0,0,4.15-.57,11.48,11.48,0,0,0,3.69-1.62,10.78,10.78,0,0,0,3-3.22l0,0h0c.65.31,1.31.59,2,.89l5.36,2.43c-.1,0-.21-.24-.29-.32l-.31-.31a8.22,8.22,0,0,0-.64-.54,10.57,10.57,0,0,0-1.4-.88c-1.38-.73-2.89-1.23-4.23-2l.3-.38a.59.59,0,0,1,.18-.17,1.4,1.4,0,0,1,.55,0h.55c1.64,0,3.29.09,4.92,0,2.21-.18,4.4-.56,6.6-.85l-.06-.35h-.09l-6.14.3-6.07.29a1.77,1.77,0,0,1,.12-.51,3.27,3.27,0,0,0,.18-.67m-3.6,2a9,9,0,0,1-7.42,4.51c-1.55.15-3.14,0-4.8,0a30.35,30.35,0,0,0-3.31,9.65c-1.1,6,1,11.43,3,16.9.65,1.79,1.52,3.51,2.34,5.38,1-.06,1.61-.13,2.26-.13,3.12,0,5.27,2.59,4.41,5.41a28.82,28.82,0,0,1-2,4.2c-.29.59-.69,1.14-1.07,1.76,4.37.74,4.37.74,5.22,1.59-.35,1-1.38,1.26-2.29,1.46a16.93,16.93,0,0,1-3.5.41c-6.3,0-12.6.1-18.89,0a26.21,26.21,0,0,1-9-1.77,8.93,8.93,0,0,1-5.73-6.1,19.15,19.15,0,0,1,.22-10.76,40.7,40.7,0,0,1,6.77-13.63c1.16-1.56,2.27-3.17,3.55-4.64a27.75,27.75,0,0,1,10.3-7.52c.53-.22,1.5-.86.75-1.32l-1.54-1c-2.11-1.44-4.52-2.65-6.18-4.46-3.89-4.26-3.8-9.86-.11-14.25a5.26,5.26,0,0,0,1.32-3.54c0-1.6.24-3.19.42-5.26l3.85,5.94c6-.45,12.05-.83,17.62,2.2l4.1-4.2c-.26,2.13-.37,3.83-.69,5.49a5.48,5.48,0,0,0,.53,3.73,9.86,9.86,0,0,1-.2,9.92"/><g id="S"><path id="White_Ink" data-name="White Ink" class="cls-2" d="M116.41,70.2a31.56,31.56,0,0,0,14.88,3.75c8.48,0,13.41-4.14,13.38-10,0-5.46-3.47-8.57-12.16-11.56-10.49-3.33-17-8.25-17-16.48,0-9.1,8.21-15.91,20.69-16,6.57,0,11.34,1.34,14.21,2.8l-2.25,6.17a27.55,27.55,0,0,0-12.21-2.72c-8.76,0-12.07,4.83-12.05,8.81,0,5.46,3.95,8.13,12.82,11.21,10.88,3.76,16.43,8.51,16.47,17.09,0,9-7.25,16.86-22.39,16.92-6.19,0-13-1.59-16.4-3.65Z"/><path class="cls-2" d="M130.59,83.55c-6.54,0-13.91-1.69-18-4.13L110.33,78l4.15-12.76,3.56,2a28.25,28.25,0,0,0,13.23,3.33c3.35,0,6.06-.75,7.84-2.12a5.43,5.43,0,0,0,2.19-4.54c0-2.73-.77-5.25-9.85-8.39-4.82-1.53-19.27-6.16-19.34-19.66a17.48,17.48,0,0,1,6.93-14c4.37-3.44,10.29-5.28,17.1-5.31,8.25,0,13.4,2,15.75,3.16l2.65,1.35L150,33.52l-3.35-1.65A24.05,24.05,0,0,0,136,29.5h-.12c-3.13,0-5.58.73-7.11,2.08a4.42,4.42,0,0,0-1.6,3.35c0,3,1.6,4.94,10.56,8.06,9.22,3.19,18.67,8.1,18.73,20.25a18.35,18.35,0,0,1-6.71,14.42c-4.57,3.81-11.15,5.85-19,5.89Zm-5-57.93a15.07,15.07,0,0,0-2.35,1.51,10.75,10.75,0,0,0-4.36,8.72c0,4,1.71,9.17,14.69,13.3l.08,0C141.08,51.74,148,55.31,148,63.89a12.15,12.15,0,0,1-4.81,9.89,14.11,14.11,0,0,1-1.52,1,15.74,15.74,0,0,0,3.79-2.3,11.59,11.59,0,0,0,4.29-9.22c0-5.42-2.45-9.87-14.21-13.93-7.93-2.75-15-5.92-15.08-14.37a11.23,11.23,0,0,1,3.87-8.42A12.51,12.51,0,0,1,125.56,25.62Z"/></g><g id="p"><path id="White_Ink-2" data-name="White Ink" class="cls-2" d="M160.27,52.94c0-5.16-.23-9.31-.43-13.14l7.24,0,.4,6.9h.18c3.28-4.92,8.49-7.86,15.73-7.89,10.73,0,18.84,8.15,18.9,20.38.07,14.47-9.61,21.67-20.06,21.72-5.87,0-11-2.28-13.69-6.26h-.18l.11,21.88-8,0Zm8,10.69a15,15,0,0,0,.38,3,12.29,12.29,0,0,0,12.14,8.51c8.53,0,13.44-6.38,13.4-15.62,0-8.07-4.75-15-13.28-14.91a12.65,12.65,0,0,0-12.15,9.12,10.87,10.87,0,0,0-.53,3Z"/><path class="cls-2" d="M157.14,99.9,156.91,53c0-5-.22-9-.43-13l-.19-3.52,14-.06.16,2.75a22.81,22.81,0,0,1,13-3.73h.11c12.78,0,22.09,10,22.16,23.72,0,7.68-2.42,14.14-7.1,18.69a23.32,23.32,0,0,1-16.3,6.4h-.12a22.16,22.16,0,0,1-10.37-2.45l.09,18Zm6.48-47,.2,40.23h1.25L165,71.26h2.14a14.75,14.75,0,0,1-1.66-3.68l-.07-.27a18.27,18.27,0,0,1-.45-3.65l0-6.9a13.93,13.93,0,0,1,.67-3.94A15.45,15.45,0,0,1,166.64,50h-2.33l-.4-6.9h-.54c.14,3,.24,6.11.26,9.78Zm24.62-10.08c5.69,2.75,9.3,8.84,9.34,16.66,0,5.41-1.45,10-4.26,13.42A15.28,15.28,0,0,1,191,75.21a15.09,15.09,0,0,0,2.89-2.2c3.34-3.25,5.09-8,5.07-13.84C198.89,51,194.68,44.86,188.24,42.84Zm-16.3,23a9,9,0,0,0,8.82,6h0a9.14,9.14,0,0,0,7.35-3.15c1.79-2.14,2.72-5.29,2.7-9.09C190.83,54.2,188.24,48,181,48H181A9.27,9.27,0,0,0,172,54.64v.05a8.53,8.53,0,0,0-.4,2l0,6.9A11.37,11.37,0,0,0,171.94,65.8Z"/></g><g id="o"><path id="White_Ink-3" data-name="White Ink" class="cls-2" d="M251.72,59.08c.07,14.82-11.27,21.33-22,21.38-12,.06-21.33-7.85-21.39-20.52-.07-13.41,9.62-21.32,21.91-21.38C243,38.5,251.66,46.82,251.72,59.08Zm-35.23.57c0,8.78,5.67,15.37,13.57,15.34,7.71,0,13.45-6.6,13.41-15.63,0-6.79-3.84-15.38-13.38-15.34S216.45,52,216.49,59.65Z"/><path class="cls-2" d="M229.59,83.82a25.29,25.29,0,0,1-17.34-6.38C207.52,73,205,67,205,60c0-7.37,2.52-13.66,7.4-18.18a26.23,26.23,0,0,1,17.86-6.58h.15c14.49,0,24.64,9.79,24.71,23.86h0c0,7.82-2.78,14.33-8.15,18.82a26.94,26.94,0,0,1-17.2,5.93Zm-11.67-38q-.52.41-1,.85c-3.46,3.21-5.27,7.78-5.24,13.22,0,6.61,3,11.82,8,14.7a19.35,19.35,0,0,1-6.53-15A21,21,0,0,1,217,47Q217.44,46.39,217.92,45.85Zm22.67-1.4c4.09,3.59,6.2,9.26,6.23,14.89a20.23,20.23,0,0,1-4.61,13.4q-.44.51-.92,1,.69-.47,1.32-1c3.84-3.21,5.77-7.8,5.74-13.63h0C248.32,52.46,245.46,47.32,240.59,44.45Zm-10.44,2.93h-.06A9.16,9.16,0,0,0,222.38,51a14.51,14.51,0,0,0-2.53,8.62h0c0,7,4.3,12,10.14,12h0a9.17,9.17,0,0,0,7.08-3.28,13.55,13.55,0,0,0,3-9C240.08,54.92,238,47.38,230.15,47.38Z"/></g><g id="t"><path id="White_Ink-4" data-name="White Ink" class="cls-2" d="M268.92,27.69,269,39.21l11.44-.05,0,5.56L269,44.77l.11,21.64c0,5,1.58,7.79,6,7.77a19.37,19.37,0,0,0,4.63-.52l.39,5.47a21.22,21.22,0,0,1-7.07,1c-3.72,0-6.72-1-8.64-3-2.28-2.15-3.11-5.71-3.14-10.43l-.11-21.89-6.81,0,0-5.56,6.81,0,0-9.62Z"/><path class="cls-2" d="M273,83.52c-4.58,0-8.34-1.38-10.91-4-3.67-3.5-4.12-9-4.14-12.81l-.09-18.53-6.81,0L251,35.94l6.81,0,0-8.9,14.51-3.62.06,12.44,11.44-.05.06,12.28-11.44.05.09,18.28c0,4.43,1.18,4.43,2.65,4.42a15.94,15.94,0,0,0,3.81-.42l3.89-1,.85,12-2.33.89a24.6,24.6,0,0,1-8.26,1.25ZM264.55,42.6l.12,24.08c0,4.09.7,6.7,2.08,8l.11.11a6.94,6.94,0,0,0,3.83,1.81c-2.59-1.26-4.91-4.09-4.94-10.17l-.13-25h0l0-9.44-1.08.27.05,10.34Z"/></g><g id="White_Ink-5" data-name="White Ink"><path class="cls-2" d="M353.47,14.49c.31-1.63.42-3.3.67-5.39l-4,4.13c-5.48-3-11.42-2.61-17.35-2.16L329,5.23c-.17,2-.39,3.6-.41,5.17a5.82,5.82,0,0,1-1.41,4.24c-2.86,3.33-2.46,9,.56,13.07,1.59,2.16,3.68,3.15,5.75,4.56l1.51,1c.74.45-.24,1-.73,1.29-8.31,4.82-14.31,13.24-17.95,21.58a26.44,26.44,0,0,0-2.53,9.69c-.12,4,1.29,9,5.61,10.63C322.21,77.54,331,78.8,334,78.86a57,57,0,0,0,12.76-.67c1.14-.15,2.33-.16,3.45-.41.9-.2,2.45-.37,2.25-1.43-.15-.79-.83-.83-5.14-1.56.38-.61.76-1.15,1.05-1.73a28.34,28.34,0,0,0,1.92-4.13c.85-2.77-1.27-5.27-4.34-5.32-.64,0-1.28.07-2.23.12-.81-1.83-1.66-3.52-2.31-5.28-2-5.37-4-10.73-3-16.61a29.79,29.79,0,0,1,3.26-9.48c1.63,0,3.19.12,4.72,0a8.89,8.89,0,0,0,7.31-4.44,9.67,9.67,0,0,0,.2-9.75A5.37,5.37,0,0,1,353.47,14.49Z"/><path class="cls-2" d="M338.52,80.1c-.91,0-1.95,0-3.29,0L334,80c-3.15-.06-12.13-1.36-15.08-2.49-4.89-1.88-6.49-7.31-6.37-11.77a28.1,28.1,0,0,1,2.63-10.13c4.26-9.77,10.73-17.58,18.22-22l-.62-.4c-.47-.32-.93-.61-1.38-.9a15.74,15.74,0,0,1-4.67-3.95c-3.42-4.65-3.64-10.9-.5-14.54a4.65,4.65,0,0,0,1.13-3.48c0-1.12.12-2.2.25-3.46.06-.56.12-1.15.17-1.79l.29-3.43,5.28,8.14c5.23-.39,11.05-.69,16.5,1.95l5.86-6-.41,3.45c-.08.65-.14,1.27-.21,1.85-.14,1.32-.26,2.46-.48,3.62h0a4.21,4.21,0,0,0,.42,2.91,10.79,10.79,0,0,1-.23,10.88,10,10,0,0,1-8.22,5,28,28,0,0,1-3.34.05l-.8,0a29.15,29.15,0,0,0-2.79,8.51c-1,5.38.81,10.29,2.72,15.49l.18.49c.42,1.16.94,2.29,1.49,3.48l.44,1h.05c.53,0,1-.07,1.45-.07a5.84,5.84,0,0,1,4.73,2.31,5.08,5.08,0,0,1,.72,4.53,19.6,19.6,0,0,1-1.47,3.3c-.18.34-.35.67-.52,1l-.18.33c3.19.54,4.1.79,4.37,2.21.39,2.09-2,2.56-2.86,2.74l-.3.06a17.22,17.22,0,0,1-2.27.29c-.44,0-.86.07-1.27.13A54.16,54.16,0,0,1,338.52,80.1ZM329.83,8.72c0,.58-.08,1.14-.09,1.69a7,7,0,0,1-1.7,5c-2.44,2.83-2.17,7.82.61,11.6a13.49,13.49,0,0,0,4,3.35c.47.3,1,.6,1.43.93l1.5,1a1.56,1.56,0,0,1,.8,1.36c0,1-1,1.59-1.57,1.93-7.17,4.16-13.37,11.63-17.48,21a25.88,25.88,0,0,0-2.43,9.25c-.1,3.65,1.12,8.06,4.85,9.49,2.67,1,11.29,2.28,14.27,2.33l1.21,0A52,52,0,0,0,346.65,77c.47-.06.94-.1,1.39-.14a15.22,15.22,0,0,0,2-.25l.34-.07.15,0c-.61-.12-1.43-.26-2.36-.41l-2.68-.45.91-1.49.37-.59a11.57,11.57,0,0,0,.63-1.06c.18-.35.36-.7.54-1.06a17.59,17.59,0,0,0,1.31-2.89,2.71,2.71,0,0,0-.37-2.45A3.51,3.51,0,0,0,346,64.79c-.37,0-.75,0-1.24.06l-.9.06L343,65l-.33-.75c-.25-.58-.51-1.14-.77-1.69-.57-1.24-1.11-2.41-1.57-3.66l-.18-.49c-1.93-5.27-3.93-10.72-2.83-16.73a30.8,30.8,0,0,1,3.39-9.85l.34-.6h.69l1.55,0a25.87,25.87,0,0,0,3.06,0,7.68,7.68,0,0,0,6.4-3.85,8.45,8.45,0,0,0,.17-8.62,6.57,6.57,0,0,1-.63-4.42h0c.12-.61.21-1.24.28-1.89l-2.26,2.31-.78-.43c-5.3-2.88-11.35-2.43-16.69-2l-.7.05Zm4.51,25.54h0Z"/></g><path class="cls-2" d="M194.75,110.69a5.68,5.68,0,0,1-7.75,0c-1.43-1.43-1.43-3.21-1.43-5.56s0-4.13,1.43-5.56a5.68,5.68,0,0,1,7.75,0c1.43,1.43,1.43,3.21,1.43,5.56S196.18,109.26,194.75,110.69Zm-2.5-9a1.85,1.85,0,0,0-2.74,0c-.31.41-.51.88-.51,3.42s.2,3,.51,3.4a1.81,1.81,0,0,0,2.74,0c.31-.41.51-.86.51-3.4S192.56,102.12,192.25,101.71Z"/><path class="cls-2" d="M205.59,112.1l-2.46-5.18H202v5.18h-3.42V98.17h5.52a4.45,4.45,0,0,1,4.75,4.48,4,4,0,0,1-2.27,3.64l3,5.81Zm-1.68-10.86H202v2.82h1.94a1.41,1.41,0,1,0,0-2.82Z"/><path class="cls-2" d="M220,110.65a5.18,5.18,0,0,1-4,1.57,5.06,5.06,0,0,1-3.85-1.53c-1.43-1.43-1.43-3.21-1.43-5.56s0-4.13,1.43-5.56a5.55,5.55,0,0,1,9.29,3.09H218a1.81,1.81,0,0,0-2-1.56,1.67,1.67,0,0,0-1.35.61c-.31.41-.51.88-.51,3.42s.2,3,.51,3.44a1.66,1.66,0,0,0,1.35.59,2,2,0,0,0,1.53-.55,2.08,2.08,0,0,0,.53-1.49v-.2H216v-2.86h5.46V106C221.42,108.26,221.07,109.57,220,110.65Z"/><path class="cls-2" d="M231.4,112.1l-.65-2.07h-4.28l-.68,2.07H222.2l5.07-13.93h2.64L235,112.1Zm-2.72-8.65-1.25,3.72h2.43Z"/><path class="cls-2" d="M244.27,112.1l-4.46-7v7h-3.42V98.17h3l4.46,7v-7h3.42V112.1Z"/><path class="cls-2" d="M250.09,112.1V98.17h3.42V112.1Z"/><path class="cls-2" d="M261.18,112.21a5.08,5.08,0,0,1-3.87-1.53c-1.43-1.43-1.43-3.21-1.43-5.56s0-4.13,1.43-5.56A5.08,5.08,0,0,1,261.18,98a5,5,0,0,1,5.26,4.54H263a1.72,1.72,0,0,0-1.78-1.49,1.66,1.66,0,0,0-1.35.59c-.31.41-.53.9-.53,3.44s.22,3,.53,3.44a1.66,1.66,0,0,0,1.35.59,1.72,1.72,0,0,0,1.78-1.49h3.48A5,5,0,0,1,261.18,112.21Z"/><path class="cls-2" d="M277.44,112.21a5.08,5.08,0,0,1-3.87-1.53c-1.43-1.43-1.43-3.21-1.43-5.56s0-4.13,1.43-5.56A5.08,5.08,0,0,1,277.44,98a5,5,0,0,1,5.26,4.54h-3.48a1.72,1.72,0,0,0-1.78-1.49,1.66,1.66,0,0,0-1.35.59c-.31.41-.53.9-.53,3.44s.21,3,.53,3.44a1.66,1.66,0,0,0,1.35.59,1.73,1.73,0,0,0,1.78-1.49h3.48A5,5,0,0,1,277.44,112.21Z"/><path class="cls-2" d="M292.12,112.1l-.65-2.07h-4.28l-.68,2.07h-3.58L288,98.17h2.64l5.07,13.93Zm-2.72-8.65-1.25,3.72h2.43Z"/><path class="cls-2" d="M301.76,101.22V112.1h-3.42V101.22h-3.42V98.17h10.27v3.05Z"/><path class="cls-2" d="M311.53,112.1V98.17H315V109h5.85v3.05Z"/><path class="cls-2" d="M322.8,112.1V98.17h3.42V112.1Z"/><path class="cls-2" d="M335.07,101.22V112.1h-3.42V101.22h-3.42V98.17h10.27v3.05Z"/><path class="cls-2" d="M346.51,101.22V112.1h-3.42V101.22h-3.42V98.17h10.27v3.05Z"/><path class="cls-2" d="M351.94,112.1V98.17h9.47v3.05h-6v2.33h5.16v3.05h-5.16V109h6v3.05Z"/><path class="cls-2" d="M370.88,112.1l-2.46-5.18h-1.15v5.18h-3.42V98.17h5.52a4.45,4.45,0,0,1,4.75,4.48,4,4,0,0,1-2.27,3.64l3,5.81Zm-1.68-10.86h-1.94v2.82h1.94a1.41,1.41,0,1,0,0-2.82Z"/><path id="S-2" data-name="S" class="cls-1" d="M116.41,70.2a31.56,31.56,0,0,0,14.88,3.75c8.48,0,13.41-4.14,13.38-10,0-5.46-3.47-8.57-12.16-11.56-10.49-3.33-17-8.25-17-16.48,0-9.1,8.21-15.91,20.69-16,6.57,0,11.34,1.34,14.21,2.8l-2.25,6.17a27.55,27.55,0,0,0-12.21-2.72c-8.76,0-12.07,4.83-12.05,8.81,0,5.46,3.95,8.13,12.82,11.21,10.88,3.76,16.43,8.51,16.47,17.09,0,9-7.25,16.86-22.39,16.92-6.19,0-13-1.59-16.4-3.65Z"/><path class="cls-1" d="M130.59,81.48c-6.2,0-13.13-1.57-16.9-3.84l-.88-.53,2.86-8.8,1.36.76a30.53,30.53,0,0,0,14.25,3.59c3.81,0,7-.9,9.1-2.55a7.5,7.5,0,0,0,3-6.19c0-4.78-3-7.49-11.29-10.35-12.16-3.86-17.86-9.49-17.91-17.69a15.45,15.45,0,0,1,6.14-12.39c4-3.15,9.48-4.84,15.83-4.87,7.78,0,12.62,1.82,14.8,2.94l1,.52-3.14,8.58L147.55,30a26.3,26.3,0,0,0-11.63-2.59c-3.64,0-6.57.92-8.47,2.6a6.58,6.58,0,0,0-2.3,4.92c0,4.44,2.93,6.87,12,10,12.11,4.19,17.29,9.66,17.33,18.3a16.31,16.31,0,0,1-6,12.81c-4.2,3.5-10.32,5.37-17.71,5.41Zm-14.69-5.56c3.57,1.78,9.57,3,14.84,3,6.78,0,12.34-1.69,16.08-4.81a13.6,13.6,0,0,0,5-10.82c0-7.46-4.56-12.06-15.6-15.88-8.85-3.07-13.65-6-13.69-12.42a9.15,9.15,0,0,1,3.17-6.86c2.38-2.11,5.89-3.23,10.17-3.25a29.16,29.16,0,0,1,11.48,2.26l1.37-3.75a31.56,31.56,0,0,0-12.59-2.18c-5.77,0-10.7,1.52-14.25,4.31a12.76,12.76,0,0,0-5.16,10.36c0,6.93,5.16,11.78,16.14,15.26,7.82,2.7,13,5.9,13.05,12.78a10,10,0,0,1-4,8.24c-2.59,2-6.28,3.07-10.66,3.09h-.14a32.94,32.94,0,0,1-14-3.2Z"/><path class="cls-1" d="M160.27,52.94c0-5.16-.23-9.31-.43-13.14l7.24,0,.4,6.9h.18c3.28-4.92,8.49-7.86,15.73-7.89,10.73,0,18.84,8.15,18.9,20.38.07,14.47-9.61,21.67-20.06,21.72-5.87,0-11-2.28-13.69-6.26h-.18l.11,21.88-8,0Zm8,10.69a15,15,0,0,0,.38,3,12.29,12.29,0,0,0,12.14,8.51c8.53,0,13.44-6.38,13.4-15.62,0-8.07-4.75-15-13.28-14.91a12.65,12.65,0,0,0-12.15,9.12,10.88,10.88,0,0,0-.53,3Z"/><path class="cls-1" d="M159.21,97.82,159,52.95c0-5-.22-9.06-.43-13.08l-.07-1.35,9.81,0,.29,5c3.63-3.88,8.69-5.92,14.81-5.95,11.65-.06,20.13,9.05,20.19,21.66,0,7.1-2.2,13-6.47,17.2a21.26,21.26,0,0,1-14.87,5.81,18.62,18.62,0,0,1-12.58-4.33l.1,19.94Zm2.35-44.88.21,42.3,5.4,0-.11-21.88h2.16l.38.57c2.4,3.57,7.08,5.69,12.52,5.69h.1a18.7,18.7,0,0,0,13.09-5.09c3.76-3.65,5.73-9,5.69-15.34-.06-11.26-7.25-19.1-17.51-19.1h-.09c-6.52,0-11.45,2.49-14.66,7.32l-.38.57h-2.09l-.4-6.9-4.67,0c.19,3.62.34,7.33.36,11.85Zm19.2,23.49c-6.3,0-11.65-3.78-13.31-9.43l0-.1a16.18,16.18,0,0,1-.41-3.24l0-6.9a12.09,12.09,0,0,1,.59-3.37,13.93,13.93,0,0,1,13.38-10H181c8.49,0,14.45,6.65,14.49,16.19,0,4.91-1.28,9.09-3.78,12.09a13.76,13.76,0,0,1-10.9,4.82ZM169.93,66.32c1.36,4.54,5.75,7.56,10.89,7.54a11.26,11.26,0,0,0,8.93-3.9c2.11-2.52,3.21-6.13,3.19-10.42,0-6.79-3.73-13.63-11.92-13.63h-.07A11.35,11.35,0,0,0,170,54.08a9.84,9.84,0,0,0-.49,2.65l0,6.9A13.54,13.54,0,0,0,169.93,66.32Z"/><path class="cls-1" d="M251.72,59.08c.07,14.82-11.27,21.33-22,21.38-12,.06-21.33-7.85-21.39-20.52-.07-13.41,9.62-21.32,21.91-21.38C243,38.5,251.66,46.82,251.72,59.08Zm-35.23.57c0,8.78,5.67,15.37,13.57,15.34,7.71,0,13.45-6.6,13.41-15.63,0-6.79-3.84-15.38-13.38-15.34S216.45,52,216.49,59.65Z"/><path class="cls-1" d="M229.59,81.74c-13.22,0-22.48-8.95-22.55-21.8,0-6.78,2.29-12.53,6.73-16.65a24.17,24.17,0,0,1,16.46-6h.14c13.27,0,22.57,8.95,22.64,21.8h0c0,7.18-2.53,13.14-7.41,17.22a24.86,24.86,0,0,1-15.88,5.45Zm.78-41.9h-.13a21.61,21.61,0,0,0-14.72,5.34c-3.9,3.61-5.94,8.71-5.91,14.75.06,11.34,8.27,19.24,20,19.24h.12a22.29,22.29,0,0,0,14.24-4.85c4.28-3.58,6.52-8.84,6.49-15.24h0C250.37,47.56,242.32,39.84,230.37,39.84ZM230,76.27c-8.52,0-14.74-7-14.79-16.62a19,19,0,0,1,3.46-11.43,13.76,13.76,0,0,1,11.41-5.49h.08c10,0,14.56,8.6,14.6,16.62a18.17,18.17,0,0,1-4.11,12,13.88,13.88,0,0,1-10.58,4.89Zm.16-31h-.07a11.13,11.13,0,0,0-9.36,4.46,16.37,16.37,0,0,0-2.95,9.88h0c0,8.16,5.17,14.06,12.21,14.06H230a11.34,11.34,0,0,0,8.64-4,15.61,15.61,0,0,0,3.48-10.34C242.15,54.5,239.6,45.31,230.15,45.31Z"/><path class="cls-1" d="M268.92,27.69,269,39.21l11.44-.05,0,5.56L269,44.77l.11,21.64c0,5,1.58,7.79,6,7.77a19.37,19.37,0,0,0,4.63-.52l.39,5.47a21.22,21.22,0,0,1-7.07,1c-3.72,0-6.72-1-8.64-3-2.28-2.15-3.11-5.71-3.14-10.43l-.11-21.89-6.81,0,0-5.56,6.81,0,0-9.62Z"/><path class="cls-1" d="M273,81.44c-4,0-7.29-1.17-9.45-3.4-2.37-2.25-3.49-5.85-3.52-11.34l-.1-20.6-6.81,0,0-8.13,6.81,0,0-9.34L270.2,26l.06,11.88,11.44-.05,0,8.13-11.44.05.1,20.35c0,5.4,1.93,6.49,4.74,6.49a18,18,0,0,0,4.31-.48l1.49-.38.57,8-.89.34a22.54,22.54,0,0,1-7.53,1.11ZM262.48,43.51l.12,23.18c0,4.75.89,7.77,2.73,9.5l0,0c1.67,1.72,4.3,2.64,7.62,2.64h.08a23.19,23.19,0,0,0,5.73-.65l-.21-3a23.17,23.17,0,0,1-3.44.26h-.05c-7.23,0-7.26-6.81-7.27-9l-.11-22.93,11.44-.05v-3l-11.44.05-.06-11.17-5.23,1.3.05,9.9-6.81,0v3Z"/><path class="cls-4" d="M277.12,34.51A2.88,2.88,0,1,1,280,31.63,2.88,2.88,0,0,1,277.12,34.51Zm0-5.11a2.23,2.23,0,1,0,2.19,2.23A2.17,2.17,0,0,0,277.12,29.4Zm.52,3.76L277.08,32h-.33v1.18h-.68V30.1h1.25a1,1,0,0,1,1,1,.86.86,0,0,1-.56.81l.64,1.29Zm-.4-2.5h-.48v.79h.48a.4.4,0,1,0,0-.79Z"/><path class="cls-1" d="M97.56,27.12V38.41H107v5.44H97.56V65c0,4.87,1.27,7.63,4.94,7.63a13.56,13.56,0,0,0,3.81-.49l.3,5.36a15,15,0,0,1-5.83,1,8.76,8.76,0,0,1-7.11-3c-1.87-2.11-2.54-5.6-2.54-10.23V43.85H85.51V38.41h5.61V29Z"/><path class="cls-1" d="M100.77,82.63a12.88,12.88,0,0,1-10.25-4.46C87.38,74.55,87,69.09,87,65.29V48H81.41V34.3H87V25.9l14.65-4.25V34.3h9.42V48h-9.42V65a8,8,0,0,0,.49,3.5,2,2,0,0,0,.34,0,9.49,9.49,0,0,0,2.65-.32l5-1.47.75,13.37-2.58,1.15A18.8,18.8,0,0,1,100.77,82.63Z"/><path class="cls-1" d="M72.31,77.72l-.53-4.95h-.23a13.34,13.34,0,0,1-11.18,5.84C53,78.61,49.18,73,49.18,67.34c0-9.49,7.86-14.67,22-14.59v-.81c0-3.24-.83-9.08-8.31-9.08a17.32,17.32,0,0,0-9.52,2.92l-1.51-4.7a21.55,21.55,0,0,1,12-3.49c11.18,0,13.9,8.19,13.9,16.05V68.31a59.2,59.2,0,0,0,.6,9.4Zm-1-20c-7.25-.16-15.49,1.22-15.49,8.84,0,4.62,2.87,6.81,6.27,6.81a9.17,9.17,0,0,0,8.84-6.57,8,8,0,0,0,.38-2.27Z"/><path class="cls-1" d="M60.37,82.72c-10,0-15.29-7.74-15.29-15.38a16.62,16.62,0,0,1,4.8-12.09c3.72-3.7,9.33-5.86,16.7-6.45C65.87,47.14,64.46,47,62.86,47a13.23,13.23,0,0,0-7.18,2.19l-4.56,3.16L47,39.44l2.49-1.74a25.62,25.62,0,0,1,14.36-4.23c11.45,0,18,7.35,18,20.16V68.31A54.93,54.93,0,0,0,82.4,77l.81,4.79H68.61l-.11-1A17.94,17.94,0,0,1,60.37,82.72Zm6.85-20.81c-4,.36-5.66,1.39-6.36,2.08a3.2,3.2,0,0,0-.91,2.54c0,2.37,1,2.7,2.16,2.7A5.17,5.17,0,0,0,67,65.53a3.83,3.83,0,0,0,.18-1Z"/><path class="cls-1" d="M43.13,75.91c-2.44,1.31-7.33,2.61-13.59,2.61C15,78.53,4.11,68.72,4.11,50.67,4.11,33.43,15,21.75,31,21.75c6.42,0,10.46,1.47,12.22,2.45L41.61,30a22.87,22.87,0,0,0-10.39-2.29c-12.07,0-20.09,8.25-20.09,22.71,0,13.48,7.26,22.14,19.78,22.14a25.11,25.11,0,0,0,10.84-2.29Z"/><path class="cls-1" d="M29.54,82.63c-8.5,0-15.8-2.91-21.11-8.41C2.91,68.51,0,60.36,0,50.67c0-19.45,12.74-33,31-33,8,0,12.62,2.08,14.22,3L48,22.18,44.21,36l-4.5-2.33a18.51,18.51,0,0,0-8.5-1.83c-10.15,0-16,6.78-16,18.6,0,11.46,5.71,18,15.67,18a21.19,21.19,0,0,0,8.95-1.82l4.64-2.41L47.88,78l-2.81,1.5C41.44,81.47,35.64,82.63,29.54,82.63Z"/><g id="C"><path id="White_ink-6" data-name="White ink" class="cls-2" d="M43.23,76c-2.45,1.31-7.36,2.62-13.66,2.62C15,78.61,4,68.78,4,50.67c0-17.29,11-29,27-29,6.44,0,10.51,1.47,12.27,2.46l-1.61,5.82a23,23,0,0,0-10.43-2.29c-12.12,0-20.18,8.28-20.18,22.78,0,13.52,7.29,22.2,19.87,22.2a25.26,25.26,0,0,0,10.89-2.29Z"/><path class="cls-2" d="M29.57,80.38C13,80.38,2.25,68.72,2.25,50.67c0-8.93,2.75-16.61,8-22.19S22.65,19.89,31,19.89c7.72,0,12,2.05,13.14,2.68l1.22.68-2.56,9.26-1.94-1a21,21,0,0,0-9.62-2.1c-11.52,0-18.41,7.85-18.41,21,0,12.79,6.77,20.43,18.1,20.43A23.47,23.47,0,0,0,41,68.76l2-1,2.24,9.18-1.21.65C41.5,78.92,36.35,80.38,29.57,80.38ZM31,23.44C15.94,23.44,5.8,34.38,5.8,50.67s9.11,26.17,23.78,26.17A33.09,33.09,0,0,0,41.16,75l-.54-2.19A29.47,29.47,0,0,1,31,74.4c-13.35,0-21.64-9.19-21.64-24,0-15.14,8.41-24.55,21.95-24.55a26.34,26.34,0,0,1,9.27,1.61l.66-2.4A27.34,27.34,0,0,0,31,23.44Z"/></g><g id="a"><path id="White_Ink-7" data-name="White Ink" class="cls-2" d="M72.31,77.72l-.53-4.95h-.23a13.34,13.34,0,0,1-11.18,5.84C53,78.61,49.18,73,49.18,67.34c0-9.49,7.86-14.67,22-14.59v-.81c0-3.24-.83-9.08-8.31-9.08a17.32,17.32,0,0,0-9.52,2.92l-1.51-4.7a21.55,21.55,0,0,1,12-3.49c11.18,0,13.9,8.19,13.9,16.05V68.31a59.2,59.2,0,0,0,.6,9.4Zm-1-20c-7.25-.16-15.49,1.22-15.49,8.84,0,4.62,2.87,6.81,6.27,6.81a9.17,9.17,0,0,0,8.84-6.57,8,8,0,0,0,.38-2.27Z"/><path class="cls-2" d="M60.37,80.68c-8.7,0-13.25-6.71-13.25-13.34a14.44,14.44,0,0,1,4.2-10.64C55.06,53,61,51,69.06,50.71c-.42-5.1-3.49-5.79-6.2-5.79a15.16,15.16,0,0,0-8.34,2.55l-2.29,1.59-2.83-8.81,1.25-.87a23.53,23.53,0,0,1,13.2-3.86c10.3,0,16,6.44,16,18.12V68.31a56.88,56.88,0,0,0,.58,9.06l.41,2.41H70.45l-.27-2.49A15.67,15.67,0,0,1,60.37,80.68ZM70.85,54.81c-7.71,0-13.45,1.66-16.62,4.81a10.45,10.45,0,0,0-3,7.71c0,4.43,2.85,9.2,9.12,9.2A11.26,11.26,0,0,0,67.71,74a11,11,0,0,1-5.61,1.45c-4.15,0-8.34-2.74-8.34-8.88a9.34,9.34,0,0,1,2.77-7c2.88-2.82,7.74-4.1,14.83-4l2,0V64.5a10,10,0,0,1-.47,2.88,12.1,12.1,0,0,1-1.67,3.32h2.38l.53,4.95H76c-.21-2.06-.31-4.49-.31-7.34V53.64c0-9.41-3.87-14-11.84-14A20.4,20.4,0,0,0,54.29,42l.24.73a19.74,19.74,0,0,1,8.33-1.92c6.6,0,10.38,4.06,10.38,11.15v2.89H70.85Zm-1.59,4.95c-4.71.12-8.08,1.06-9.83,2.77a5.29,5.29,0,0,0-1.53,4c0,3,1.53,4.74,4.21,4.74A7.08,7.08,0,0,0,69,66.15a5.9,5.9,0,0,0,.28-1.64Z"/></g><g id="t-2" data-name="t"><path id="White_ink_t" data-name="White ink t" class="cls-2" d="M97.56,27.12V38.41H107v5.44H97.56V65c0,4.87,1.27,7.63,4.94,7.63a13.56,13.56,0,0,0,3.81-.49l.3,5.36a15,15,0,0,1-5.83,1,8.76,8.76,0,0,1-7.11-3c-1.87-2.11-2.54-5.6-2.54-10.23V43.85H85.51V38.41h5.61V29Z"/><path class="cls-2" d="M100.77,80.59a10.88,10.88,0,0,1-8.68-3.74c-2.07-2.36-3-6-3-11.57V45.92H83.45V36.34h5.61V27.44l10.57-3.07v12H109v9.57H99.62V65c0,5.57,1.73,5.57,2.87,5.57a11.45,11.45,0,0,0,3.23-.4l2.5-.74.52,9.39-1.3.58A17,17,0,0,1,100.77,80.59ZM87.58,41.78h5.61V65.29c0,4.43.66,7.33,2,8.86l.06.07a6.88,6.88,0,0,0,5.5,2.23,16.17,16.17,0,0,0,3.68-.37l-.08-1.43a18.43,18.43,0,0,1-1.88.09c-4.65,0-7-3.26-7-9.7V41.78h9.42V40.48H95.49V29.87l-2.3.67v9.93H87.58Z"/></g></g></g></svg>