<svg xmlns="http://www.w3.org/2000/svg" xmlns:xlink="http://www.w3.org/1999/xlink" viewBox="0 0 103.9 103.12"><defs><style>.cls-1{fill:none;}.cls-2{clip-path:url(#clip-path);}.cls-3{fill:#fff;}.cls-4{fill:#00b8f1;}</style><clipPath id="clip-path" transform="translate(0 0)"><rect class="cls-1" width="103.9" height="103.13"/></clipPath></defs><title>Asset 11</title><g id="Layer_2" data-name="Layer 2"><g id="Layer_1-2" data-name="Layer 1"><g class="cls-2"><path class="cls-3" d="M103.9,51.56A51.19,51.19,0,0,0,88.69,15.11a52.23,52.23,0,0,0-73.49,0,51.29,51.29,0,0,0,0,72.9,52.23,52.23,0,0,0,73.49,0A51.2,51.2,0,0,0,103.9,51.56" transform="translate(0 0)"/><path class="cls-4" d="M95.24,51.56A42.65,42.65,0,0,0,82.57,21.19a43.52,43.52,0,0,0-61.23,0,42.74,42.74,0,0,0,0,60.75,43.52,43.52,0,0,0,61.23,0A42.66,42.66,0,0,0,95.24,51.56" transform="translate(0 0)"/><path class="cls-3" d="M35.23,53.62c0,1.71-.87,2.5-2.28,2.5s-2.26-.78-2.26-2.5V47.56c0-1.72.83-2.5,2.26-2.5s2.28.78,2.28,2.5Zm2.82,0V47.56c0-3.63-2.24-5-5.1-5s-5.08,1.35-5.08,5v6.06c0,3.63,2.22,5,5.08,5s5.1-1.35,5.1-5m9.77-.13c0,1.7-.85,2.5-2.28,2.5H43.28V45.06h2.26c1.43,0,2.28.8,2.28,2.5Zm2.82,0V47.56c0-3.63-2.24-5-5.1-5H41.7c-.74,0-1.24.41-1.24.87V57.59c0,.45.5.87,1.24.87h3.84c2.87,0,5.1-1.35,5.1-5m9.6.13c0,1.71-.87,2.5-2.28,2.5s-2.26-.78-2.26-2.5V47.56c0-1.72.83-2.5,2.26-2.5s2.28.78,2.28,2.5Zm2.82,0V47.56c0-3.63-2.24-5-5.1-5s-5.08,1.35-5.08,5v6.06c0,3.63,2.21,5,5.08,5s5.1-1.35,5.1-5m7.62-3.93H68.3V45.06h2.39A2,2,0,0,1,73,47.39a2,2,0,0,1-2.32,2.3m5.15,7.06L73,51.47c1.63-.5,2.84-1.85,2.84-4.34,0-3.45-2.3-4.54-5.15-4.54h-4.3a.88.88,0,0,0-.91.87V57.57c0,.58.72.89,1.41.89s1.41-.31,1.41-.89V51.9h1.82l3.08,6a1.11,1.11,0,0,0,1,.67,1.83,1.83,0,0,0,1.76-1.48.59.59,0,0,0-.11-.35" transform="translate(0 0)"/><path class="cls-3" d="M80,51.56a28,28,0,0,1-6.72,18.19L33.76,30.2A28.05,28.05,0,0,1,80,51.56M31.81,32,71.48,71.71A28.06,28.06,0,0,1,31.81,32M87.42,51.56A35.47,35.47,0,1,0,52,87,35.53,35.53,0,0,0,87.42,51.56" transform="translate(0 0)"/></g></g></g></svg>